<?xml version="1.0" standalone="no"?>
<!DOCTYPE svg PUBLIC "-//W3C//DTD SVG 20010904//EN"
 "http://www.w3.org/TR/2001/REC-SVG-20010904/DTD/svg10.dtd">
<svg version="1.0" xmlns="http://www.w3.org/2000/svg"
 width="100.000000pt" height="100.000000pt" viewBox="0 0 100.000000 100.000000"
 preserveAspectRatio="xMidYMid meet">

<g transform="translate(0.000000,100.000000) scale(0.100000,-0.100000)"
fill="#000000" stroke="none">
<path d="M480 958 c-5 -13 -34 -86 -64 -163 -62 -160 -50 -151 -196 -155 -137
-4 -215 -14 -215 -27 0 -7 58 -60 130 -118 72 -59 131 -110 133 -115 2 -4 -15
-77 -38 -162 -42 -162 -46 -188 -30 -188 5 0 73 41 150 90 77 50 145 90 150
90 5 0 73 -41 150 -90 77 -50 145 -90 150 -90 16 0 12 26 -30 188 -23 85 -40
158 -38 162 2 4 62 55 133 114 72 58 130 112 130 118 0 14 -76 24 -215 28
-147 4 -133 -8 -204 174 -34 88 -67 161 -74 164 -6 2 -16 -7 -22 -20z m69
-176 c71 -189 46 -169 221 -177 83 -4 150 -11 148 -15 -2 -4 -54 -49 -115 -99
-62 -51 -113 -97 -113 -103 0 -6 16 -71 36 -145 19 -74 33 -137 31 -140 -3 -3
-62 32 -131 76 l-126 81 -126 -81 c-69 -44 -128 -79 -131 -76 -2 3 12 66 31
140 20 74 36 139 36 145 0 6 -51 52 -112 103 -62 50 -114 95 -116 99 -1 4 66
11 150 16 l153 9 55 142 c30 79 57 143 60 143 3 0 25 -53 49 -118z"/>
</g>
</svg>
